<?xml version="1.0" standalone="no"?><!-- Generator: Gravit.io --><svg xmlns="http://www.w3.org/2000/svg" xmlns:xlink="http://www.w3.org/1999/xlink" style="isolation:isolate" viewBox="0 0 100 100" width="100" height="100"><defs><clipPath id="_clipPath_3nhbWtJ06UpxGjjIxX4SgZpxkzYAUkCG"><rect width="100" height="100"/></clipPath></defs><g clip-path="url(#_clipPath_3nhbWtJ06UpxGjjIxX4SgZpxkzYAUkCG)"><g><path d=" M 41.136 34.814 C 40.578 33.51 40.442 32.063 40.748 30.678 C 40.974 29.715 41.441 28.825 42.105 28.093 L 42.041 27.77 C 41.295 26.136 41.249 24.269 41.912 22.6 C 42.14 22.014 42.492 21.484 42.946 21.049 L 42.881 20.725 L 42.752 20.338 C 42.614 19.852 42.528 19.354 42.493 18.851 C 42.403 17.57 42.745 16.297 43.463 15.232 L 43.333 14.909 L 43.204 14.586 C 43.046 14.164 42.917 13.732 42.816 13.293 C 42.455 12.067 42.478 10.759 42.881 9.545 C 42.971 9.321 43.079 9.105 43.204 8.899 L 43.204 8.253 C 43.254 6.993 43.406 5.74 43.657 4.504 C 44.285 3.171 45.466 2.179 46.888 1.79 L 46.888 1.661 C 47.494 1.77 48.082 1.965 48.633 2.242 C 50.237 2.994 51.488 4.337 52.122 5.991 C 52.484 7.183 52.616 8.433 52.51 9.674 L 52.639 9.804 L 52.833 9.997 C 53.36 10.648 53.755 11.394 53.997 12.195 C 54.384 13.358 54.449 14.651 54.449 15.878 L 54.514 15.943 C 54.837 16.266 55.16 16.589 55.289 16.912 L 55.806 18.205 L 56.259 20.144 L 56.452 23.117 L 56.452 23.246 L 56.517 23.44 L 56.646 23.634 L 57.034 24.344 C 57.882 26.318 58.194 28.48 57.939 30.613 L 58.133 30.872 C 58.133 31.001 58.262 31.065 58.327 31.195 C 59.009 32.393 59.345 33.758 59.296 35.137 C 59.296 35.912 59.167 36.623 58.973 37.334 L 59.102 37.593 L 61.105 38.497 C 61.299 38.756 71.122 27.705 82.367 23.504 C 83.531 23.117 83.983 23.181 85.986 29.514 C 87.302 34.697 87.235 40.134 85.793 45.283 C 85.656 46.355 85.592 47.434 85.599 48.514 L 85.663 49.355 C 85.663 49.548 85.793 49.742 85.857 49.872 L 85.986 49.872 L 86.116 49.936 C 86.245 49.936 86.31 50.065 86.374 50.13 C 86.588 50.416 86.53 50.821 86.245 51.035 C 86.093 51.138 85.91 51.183 85.728 51.164 L 83.789 51.164 L 84.048 53.555 L 84.048 53.878 C 83.924 54.121 83.673 54.271 83.401 54.266 L 83.143 54.266 L 82.109 53.878 L 81.85 56.205 C 81.915 56.27 84.048 58.79 83.66 67.321 L 83.66 67.579 C 83.66 68.872 85.082 70.164 85.922 71.133 C 86.31 71.586 86.762 71.909 87.214 72.232 C 88.08 72.783 89.047 73.156 90.058 73.331 L 90.122 73.331 L 90.252 73.395 L 90.446 73.589 C 90.618 73.819 90.618 74.135 90.446 74.365 L 90.252 74.559 L 90.122 74.559 L 86.633 75.722 L 90.51 77.208 L 90.639 77.273 L 90.769 77.338 L 90.898 77.531 C 90.982 77.701 90.988 77.899 90.913 78.073 C 90.838 78.248 90.691 78.38 90.51 78.436 L 90.381 78.436 L 86.245 79.212 L 87.085 79.599 C 88.016 80.022 88.922 80.496 89.799 81.021 L 90.51 81.538 C 90.696 81.673 90.869 81.825 91.027 81.991 L 91.286 82.378 L 91.35 82.702 C 91.35 83.025 87.02 85.739 84.629 84.705 C 83.595 87.096 79.524 89.099 76.616 91.103 C 64.983 99.31 43.657 100.474 29.956 93.236 C 29.374 93.559 26.208 89.358 26.078 89.229 C 24.463 88.324 22.201 89.358 22.071 89.358 L 21.878 89.358 C 21.623 89.248 21.467 88.988 21.49 88.712 L 21.231 85.804 C 20.071 85.663 18.908 85.555 17.742 85.48 C 17.487 85.343 17.355 85.052 17.418 84.77 C 17.45 84.645 17.517 84.532 17.612 84.446 L 17.806 84.317 L 19.293 82.831 L 16.708 82.12 L 16.578 82.12 C 16.408 82.117 16.245 82.048 16.126 81.926 C 15.88 81.675 15.88 81.273 16.126 81.021 L 16.126 80.957 L 21.619 75.14 C 20.619 71.159 20.553 67.001 21.425 62.991 L 19.616 62.668 L 19.486 62.668 L 19.486 62.474 C 19.385 62.432 19.296 62.365 19.228 62.28 L 19.228 62.151 L 18.84 61.31 L 16.384 60.341 L 16.255 60.341 L 16.126 60.147 C 15.968 59.971 15.918 59.724 15.997 59.501 L 16.061 59.372 L 16.708 58.725 L 15.027 58.402 L 14.963 58.402 L 14.833 58.338 C 14.516 58.191 14.373 57.819 14.51 57.497 L 14.64 57.304 L 15.738 56.205 C 15.35 55.623 13.799 54.46 6.238 45.025 C 3.847 42.052 5.075 39.919 5.075 39.919 C 5.075 39.919 5.85 38.497 13.024 39.338 C 14.252 39.467 15.415 39.338 16.643 39.273 C 18.008 39.208 19.368 39.056 20.714 38.821 L 21.748 38.627 L 22.33 38.497 C 23.17 38.368 24.075 38.239 24.915 38.239 C 26.913 38.15 28.904 38.526 30.731 39.338 L 32.67 40.178 L 34.286 40.695 C 35.061 40.953 37.711 41.082 39.133 40.436 C 40.037 40.048 39.973 39.079 40.102 38.497 C 40.425 37.528 40.942 36.559 41.588 35.719 C 41.539 35.613 41.496 35.506 41.459 35.395 L 41.265 35.072 L 41.136 34.878 L 41.136 34.814 Z " fill-rule="evenodd" fill="rgb(0,0,0)" fill-opacity="0.2"/><path d=" M 43.721 33.521 C 43.141 32.224 42.983 30.777 43.269 29.385 C 43.329 29.019 43.461 28.667 43.657 28.351 C 43.919 27.784 44.268 27.261 44.691 26.8 L 44.691 26.736 C 44.52 26.268 44.369 25.794 44.238 25.314 C 43.98 24.021 43.915 22.535 44.432 21.242 C 44.699 20.662 45.072 20.136 45.531 19.691 L 45.401 19.368 L 45.337 19.045 C 45.171 18.542 45.062 18.022 45.014 17.494 C 44.924 16.213 45.265 14.939 45.983 13.875 L 45.918 13.552 C 45.675 13.055 45.48 12.535 45.337 12.001 C 45 10.767 45.046 9.46 45.466 8.253 C 45.558 8.029 45.666 7.813 45.789 7.606 C 45.78 6.129 45.931 4.656 46.242 3.212 C 46.856 1.892 48.01 0.903 49.408 0.497 L 49.537 0.368 L 50.184 0.497 L 51.282 0.95 C 52.903 1.711 54.157 3.081 54.772 4.763 C 55.132 5.933 55.263 7.162 55.16 8.382 L 55.289 8.511 L 55.418 8.705 C 56 9.351 56.388 10.127 56.582 10.902 C 56.969 12.13 57.099 13.358 57.034 14.586 L 57.163 14.715 C 57.486 14.974 57.745 15.361 57.939 15.685 L 58.456 16.912 C 58.84 18.523 59.056 20.169 59.102 21.824 L 59.102 22.147 C 59.294 22.459 59.467 22.783 59.619 23.117 C 60.483 25.063 60.818 27.203 60.588 29.321 L 60.718 29.644 L 60.912 29.902 L 60.976 29.967 L 61.429 30.936 C 62.027 32.578 62.073 34.371 61.558 36.042 L 61.752 36.3 C 61.816 36.429 63.691 37.14 63.691 37.27 C 63.949 37.528 73.708 26.477 85.017 22.276 C 86.116 21.824 86.633 21.889 88.571 28.222 C 89.85 33.25 89.828 38.521 88.507 43.538 L 88.442 43.991 C 88.282 45.363 88.239 46.747 88.313 48.127 C 88.313 48.256 88.378 48.45 88.507 48.579 L 88.636 48.579 L 88.701 48.644 C 88.825 48.675 88.938 48.742 89.024 48.838 C 89.196 49.067 89.196 49.383 89.024 49.613 L 88.895 49.807 C 88.743 49.91 88.56 49.956 88.378 49.936 L 86.374 49.807 L 86.697 52.263 L 86.697 52.392 L 86.633 52.586 C 86.509 52.828 86.258 52.979 85.986 52.974 L 85.728 52.974 L 84.759 52.586 L 84.5 54.912 C 84.5 54.977 86.697 57.562 86.245 66.093 L 86.245 66.287 C 86.31 67.579 87.731 68.872 88.571 69.841 C 88.946 70.268 89.382 70.639 89.864 70.94 C 90.71 71.483 91.654 71.856 92.643 72.038 L 92.772 72.038 L 92.901 72.168 C 92.95 72.204 92.994 72.248 93.031 72.297 C 93.237 72.539 93.237 72.895 93.031 73.137 L 92.837 73.266 L 92.707 73.266 L 89.218 74.494 L 93.16 75.98 L 93.289 75.98 L 93.354 76.11 L 93.548 76.239 C 93.707 76.527 93.623 76.889 93.354 77.079 L 93.16 77.208 L 93.031 77.208 L 88.83 77.919 L 89.67 78.307 C 91.104 78.953 92.45 79.778 93.677 80.763 L 93.935 81.086 L 94 81.409 C 94 81.732 89.67 84.446 87.214 83.477 C 86.245 85.804 82.173 87.807 79.265 89.81 C 67.633 98.082 46.306 99.181 32.541 91.943 C 32.024 92.266 28.857 88.065 28.663 87.936 C 27.048 87.096 24.786 88.13 24.721 88.13 L 24.463 88.065 C 24.233 87.936 24.106 87.68 24.14 87.419 L 23.816 84.511 C 22.677 84.393 21.535 84.307 20.391 84.253 C 20.211 84.152 20.09 83.972 20.065 83.768 C 20.039 83.564 20.112 83.36 20.262 83.219 L 20.391 83.089 L 21.878 81.603 L 19.293 80.827 L 18.969 80.827 C 18.805 80.769 18.671 80.647 18.598 80.489 C 18.525 80.331 18.519 80.15 18.582 79.987 L 18.711 79.729 L 18.776 79.729 L 24.269 73.848 C 23.623 74.365 22.847 63.378 24.01 61.698 L 22.265 61.375 L 22.071 61.375 L 21.942 61.31 C 21.835 61.248 21.746 61.159 21.684 61.052 L 21.684 60.987 L 21.361 60.082 L 18.84 59.178 L 18.646 58.984 C 18.488 58.808 18.439 58.56 18.517 58.338 L 18.646 58.144 L 19.228 57.497 L 17.612 57.174 L 17.418 57.174 C 17.342 57.123 17.276 57.057 17.225 56.98 C 17.041 56.792 16.99 56.511 17.095 56.27 L 17.225 56.076 L 18.323 55.042 C 17.871 54.395 16.384 53.297 8.823 43.797 C 6.432 40.824 7.595 38.756 7.595 38.756 C 7.595 38.756 8.435 37.205 15.609 38.11 C 16.772 38.239 18 38.11 19.163 37.98 C 20.55 37.917 21.932 37.766 23.299 37.528 L 24.269 37.334 L 24.915 37.205 C 25.755 37.076 26.595 36.946 27.5 36.946 C 29.497 36.869 31.485 37.245 33.316 38.045 L 35.255 38.885 L 36.871 39.467 C 37.582 39.661 40.296 39.79 41.718 39.144 C 42.558 38.756 42.493 37.787 42.687 37.205 C 43.01 36.236 43.527 35.266 44.174 34.426 L 43.98 34.168 L 43.85 33.78 L 43.657 33.651 L 43.721 33.586 L 43.721 33.521 Z " fill-rule="evenodd" fill="rgb(255,255,255)" vector-effect="non-scaling-stroke" stroke-width="0.165" stroke="rgb(207,207,207)" stroke-linejoin="round" stroke-linecap="butt" stroke-miterlimit="1.41"/><path d=" M 41.653 42.181 C 41.653 42.181 53.738 40.889 61.429 41.6 C 64.66 41.923 65.629 39.855 65.888 39.531 C 66.082 39.208 68.344 37.463 70.412 36.494 C 72.48 35.46 74.16 29.385 84.629 25.314 C 84.629 25.314 86.956 32.035 83.854 42.957 C 83.854 42.957 82.949 48.45 84.435 48.45 L 81.915 48.321 L 82.238 51.293 L 80.687 50.712 L 80.299 53.943 C 80.299 53.943 84.177 57.368 82.367 66.222 C 82.367 66.222 81.98 71.133 87.537 72.361 L 83.014 74.042 L 87.925 75.98 L 82.367 77.014 C 82.367 77.014 87.796 79.276 88.313 80.569 C 88.313 80.569 82.82 78.953 81.786 80.246 L 83.466 82.055 L 81.656 82.766 L 83.078 84.705 C 83.078 84.705 81.656 84.382 80.364 85.157 C 79.071 85.997 71.316 89.358 71.316 89.358 C 71.316 89.358 52.575 97.565 40.49 90.198 C 40.49 90.198 35.966 88.518 34.221 89.616 C 34.221 89.616 34.674 88.324 33.575 87.225 C 32.476 86.062 30.99 84.77 30.99 84.77 C 30.99 84.77 28.211 84.059 26.337 85.674 C 26.337 85.674 28.405 82.378 28.405 81.797 C 28.405 81.797 25.367 80.892 24.01 81.797 C 24.01 81.797 27.306 80.181 27.759 78.565 L 21.942 79.341 L 27.565 74.365 C 27.565 74.365 26.272 67.127 27.306 61.892 L 28.146 60.276 L 25.755 59.824 L 25.432 58.725 L 22.976 57.756 L 24.14 56.334 L 21.748 55.882 L 23.041 54.589 L 21.554 52.392 C 21.554 52.392 14.575 47.48 12.83 43.474 C 12.83 43.474 10.374 42.827 9.663 39.919 C 9.663 39.919 19.486 41.147 24.915 39.855 C 30.344 38.562 32.024 40.113 35.191 41.341 C 37.238 42.168 39.463 42.458 41.653 42.181 Z " fill-rule="evenodd" fill="rgb(253,243,236)"/><path d=" M 25.303 58.984 C 25.303 58.984 26.66 60.341 27.823 60.276 C 28.534 60.276 29.18 59.242 29.374 58.338 C 29.762 56.27 29.568 48.902 29.568 48.902 C 29.568 48.902 21.49 44.249 17.806 43.797 C 14.187 43.409 13.67 43.797 12.507 43.151 C 11.344 42.634 13.67 45.089 13.67 45.089 L 21.296 52.134 L 22.912 54.395 L 21.878 55.817 L 24.075 56.528 L 23.299 57.885 L 25.303 58.984 Z  M 71.704 44.314 C 71.704 44.314 79.588 41.082 80.881 33.327 C 82.173 25.637 85.211 27.834 85.211 27.834 L 85.534 34.943 L 83.595 43.861 L 83.724 48.191 L 81.98 48.514 L 82.109 51.099 L 80.816 50.906 L 80.558 53.555 L 80.235 54.202 C 80.235 54.202 77.133 49.096 71.704 44.314 Z " fill-rule="evenodd" fill="rgb(247,209,183)"/><path d=" M 23.752 45.865 C 26.789 47.287 29.568 48.902 29.568 48.902 L 29.568 55.106 C 28.629 55.207 27.68 55.097 26.789 54.783 C 21.748 53.426 23.17 47.545 23.752 45.865 Z  M 77.262 40.889 C 77.262 40.889 78.167 38.433 78.684 39.144 C 80.299 41.341 82.561 45.348 78.361 48.773 C 72.35 53.62 71.898 47.739 71.898 47.739 L 71.575 44.378 L 73.708 43.409 L 77.197 40.889 L 77.262 40.889 Z " fill-rule="evenodd" fill="rgb(240,166,116)"/><path d=" M 60.847 66.804 C 60.847 66.804 60.459 59.759 66.017 57.304 C 71.704 54.912 75.194 61.181 72.997 64.412 C 70.799 67.579 67.827 67.708 67.827 67.708 C 67.827 67.708 61.364 68.936 60.847 66.804 Z " fill-rule="evenodd" fill="rgb(224,212,87)"/><path d=" M 48.374 67.191 C 48.374 67.191 47.469 60.212 41.524 58.79 C 35.578 57.433 33.316 64.219 36.031 66.997 C 38.745 69.712 41.718 69.324 41.718 69.324 C 41.718 69.324 48.18 69.324 48.374 67.191 Z " fill-rule="evenodd" fill="rgb(110,201,195)"/><path d=" M 46.306 42.246 C 46.306 42.246 43.915 38.304 47.146 34.103 C 47.146 34.103 44.561 30.355 47.599 27.123 C 47.599 27.123 45.66 22.923 48.31 20.596 C 48.31 20.596 46.823 17.623 48.762 15.103 C 48.762 15.103 47.017 11.742 48.439 9.351 C 48.439 9.351 48.439 4.763 49.408 3.923 C 49.408 3.923 54.191 4.763 53.674 11.419 C 53.674 11.419 55.612 12.712 55.354 17.236 C 55.354 17.236 57.099 17.753 57.099 23.957 C 57.099 23.957 58.908 26.8 58.391 30.807 C 58.391 30.807 60.33 33.263 59.231 37.076 C 59.231 37.076 61.816 39.661 60.395 43.344 C 58.973 46.963 54.514 46.963 53.092 46.834 C 48.439 46.446 46.306 42.246 46.306 42.246 Z " fill-rule="evenodd" fill="rgb(227,157,255)"/><path d=" M 47.146 34.168 C 48.956 36.365 52.769 39.079 59.425 37.399 C 60.071 38.11 61.558 40.436 60.395 43.344 C 58.973 46.963 54.514 46.963 53.092 46.834 C 48.439 46.446 46.306 42.246 46.306 42.246 C 46.306 42.246 43.915 38.304 47.146 34.103 L 47.146 34.168 Z  M 48.245 20.467 C 49.602 20.661 52.252 22.147 57.293 24.344 C 57.745 25.249 58.779 27.576 58.456 30.484 C 56.517 29.45 50.571 26.412 47.469 26.736 C 47.017 25.572 46.177 22.47 48.31 20.596 L 48.31 20.467 L 48.245 20.467 Z  M 48.439 9.028 C 49.731 9.545 51.347 10.385 53.674 11.419 C 53.674 11.419 55.612 12.712 55.354 17.236 C 53.227 16.15 50.967 15.347 48.633 14.844 C 48.245 14.069 47.211 11.355 48.439 9.351 L 48.439 9.028 Z " fill-rule="evenodd" fill="rgb(249,160,160)"/><path d=" M 45.983 33.327 C 45.495 32.095 45.383 30.746 45.66 29.45 C 45.827 28.749 46.134 28.089 46.565 27.511 L 46.888 27.059 L 46.823 26.736 L 46.694 26.348 L 46.5 25.702 C 46.179 24.44 46.247 23.111 46.694 21.889 C 46.916 21.368 47.221 20.888 47.599 20.467 L 47.534 20.144 L 47.405 19.821 C 47.292 19.354 47.227 18.878 47.211 18.399 C 47.121 17.217 47.416 16.039 48.051 15.038 C 47.804 14.469 47.588 13.887 47.405 13.293 C 47.116 12.141 47.161 10.931 47.534 9.804 C 47.603 9.582 47.69 9.366 47.793 9.157 L 47.793 8.576 C 47.86 7.403 48.011 6.237 48.245 5.086 C 48.291 4.823 48.356 4.564 48.439 4.31 C 48.553 3.998 48.728 3.712 48.956 3.47 L 49.214 3.276 L 49.796 3.406 L 50.765 3.793 C 52.377 4.591 53.558 6.056 53.997 7.8 C 54.306 8.892 54.415 10.03 54.32 11.161 L 54.449 11.29 L 54.514 11.419 C 55.031 12.066 55.354 12.712 55.548 13.487 C 55.935 14.586 56 15.749 55.935 16.912 L 56.065 17.042 C 56.331 17.304 56.549 17.61 56.711 17.946 L 57.163 19.045 L 57.551 20.984 L 57.68 23.634 L 57.68 23.763 L 57.81 23.957 C 57.954 24.23 58.083 24.51 58.197 24.797 C 58.96 26.635 59.248 28.635 59.037 30.613 L 59.167 30.872 L 59.296 31.13 L 59.296 31.195 L 59.361 31.195 L 59.748 32.1 C 60.28 33.62 60.326 35.269 59.878 36.817 L 59.878 36.882 L 60.071 37.076 L 60.201 37.334 C 60.787 38.212 61.183 39.202 61.364 40.242 L 61.429 40.953 L 61.687 40.953 L 62.01 41.018 C 62.656 41.018 63.303 40.953 63.884 40.63 C 64.17 40.502 64.432 40.327 64.66 40.113 C 64.83 39.958 64.982 39.785 65.112 39.596 L 65.371 39.208 L 65.371 39.144 C 66.746 37.977 68.241 36.959 69.83 36.106 L 70.218 35.912 L 70.282 35.848 C 70.695 35.463 71.084 35.053 71.446 34.62 L 72.415 33.327 C 73.411 32.173 74.468 31.073 75.582 30.031 C 78.046 27.83 80.894 26.1 83.983 24.926 L 84.112 24.926 L 84.435 24.797 C 84.562 24.757 84.697 24.757 84.823 24.797 L 84.952 24.861 L 85.082 24.991 L 85.146 25.185 L 85.276 25.508 C 85.713 27.46 85.951 29.452 85.986 31.453 C 86.066 35.566 85.499 39.666 84.306 43.603 C 84.163 44.891 84.142 46.189 84.242 47.48 C 84.242 47.545 84.242 47.739 84.371 47.868 L 84.5 47.868 L 84.629 47.933 C 84.707 47.983 84.773 48.049 84.823 48.127 C 84.939 48.327 84.939 48.573 84.823 48.773 L 84.759 48.967 C 84.629 49.065 84.468 49.111 84.306 49.096 L 82.561 49.031 L 82.82 51.293 L 82.82 51.423 C 82.71 51.677 82.45 51.833 82.173 51.81 L 81.98 51.81 L 81.139 51.487 L 80.881 53.62 L 81.075 53.814 C 81.721 54.654 82.238 55.623 82.626 56.657 C 83.443 59.045 83.665 61.596 83.272 64.089 C 83.199 64.891 83.091 65.688 82.949 66.48 C 82.988 68.178 83.857 69.748 85.276 70.681 C 85.996 71.181 86.809 71.533 87.667 71.715 L 87.731 71.715 L 87.861 71.844 C 87.861 71.844 87.99 71.844 87.99 71.974 C 88.162 72.203 88.162 72.519 87.99 72.749 L 87.796 72.878 L 87.731 72.878 L 84.694 73.977 L 88.119 75.399 L 88.184 75.399 L 88.248 75.463 L 88.378 75.657 C 88.515 75.979 88.372 76.351 88.054 76.497 L 87.99 76.497 L 84.306 77.208 L 85.082 77.596 L 85.599 77.855 C 86.454 78.287 87.275 78.783 88.054 79.341 L 88.507 79.793 C 88.608 79.912 88.695 80.042 88.765 80.181 L 88.83 80.44 C 88.843 80.733 88.658 80.998 88.378 81.086 L 88.054 81.086 L 87.861 81.021 L 87.537 80.957 C 86.265 80.634 84.968 80.418 83.66 80.31 L 82.755 80.31 L 83.854 81.603 L 83.983 81.797 C 84.045 82.031 83.97 82.281 83.789 82.443 L 83.66 82.508 L 82.561 82.96 L 83.466 84.253 L 83.531 84.317 L 83.531 84.64 C 83.501 84.948 83.257 85.192 82.949 85.222 L 82.497 85.222 C 81.993 85.156 81.48 85.222 81.01 85.416 L 80.687 85.61 C 80.558 85.61 80.493 85.739 80.364 85.804 L 79.912 85.997 L 78.231 86.838 L 76.293 87.742 C 74.533 88.534 72.767 89.309 70.993 90.069 C 65.014 92.408 58.67 93.676 52.252 93.817 C 48.051 93.783 43.924 92.718 40.231 90.715 L 40.167 90.715 C 38.869 90.264 37.525 89.961 36.16 89.81 L 35.126 89.81 C 34.896 89.854 34.676 89.942 34.48 90.069 L 34.35 90.198 L 34.092 90.198 C 33.823 90.183 33.591 90.003 33.51 89.746 L 33.51 89.552 L 33.575 89.358 L 33.575 88.841 C 33.565 88.381 33.38 87.942 33.058 87.613 L 32.412 86.967 L 30.796 85.48 L 30.667 85.351 C 30.369 85.284 30.066 85.241 29.762 85.222 C 28.891 85.164 28.02 85.343 27.242 85.739 C 27.06 85.831 26.887 85.939 26.725 86.062 L 26.66 86.127 L 26.595 86.127 L 26.466 86.256 L 26.143 86.256 C 26.1 86.26 26.057 86.26 26.014 86.256 C 25.697 86.109 25.553 85.737 25.691 85.416 L 25.691 85.351 L 26.208 84.576 L 27.435 82.508 L 27.435 82.378 L 27.565 82.249 L 27.242 82.249 C 26.774 82.142 26.299 82.077 25.82 82.055 C 25.432 82.055 25.109 82.055 24.786 82.184 L 24.657 82.184 L 24.269 82.378 L 24.14 82.378 C 23.975 82.45 23.787 82.45 23.623 82.378 C 23.418 82.232 23.317 81.98 23.364 81.732 C 23.377 81.615 23.421 81.503 23.493 81.409 L 23.687 81.28 C 23.81 81.204 23.94 81.139 24.075 81.086 L 24.14 81.086 L 24.398 80.892 C 25.044 80.504 25.691 80.052 26.337 79.47 L 26.401 79.47 L 26.401 79.406 L 21.942 79.923 L 21.684 79.923 C 21.612 79.892 21.546 79.848 21.49 79.793 C 21.309 79.631 21.234 79.382 21.296 79.147 L 21.425 78.953 L 21.49 78.889 L 26.854 74.171 L 26.789 73.525 L 26.66 72.943 C 26.341 70.284 26.212 67.606 26.272 64.929 C 26.272 64.154 26.401 63.443 26.531 62.668 L 26.595 62.021 L 26.595 61.892 L 26.66 61.698 L 26.66 61.633 L 27.177 60.729 L 25.561 60.406 L 25.497 60.406 L 25.367 60.341 C 25.28 60.275 25.212 60.185 25.174 60.082 L 25.174 60.018 L 24.85 59.242 L 22.718 58.338 L 22.589 58.338 C 22.589 58.208 22.524 58.208 22.459 58.144 C 22.346 57.971 22.322 57.755 22.395 57.562 L 22.459 57.368 L 22.976 56.722 L 21.554 56.528 L 21.425 56.528 L 21.361 56.463 C 21.101 56.299 20.993 55.975 21.102 55.688 C 21.102 55.559 21.167 55.559 21.231 55.494 L 22.136 54.46 L 21.037 52.78 L 20.844 52.651 L 20.52 52.392 L 19.745 51.81 C 17.566 50.063 15.534 48.139 13.67 46.059 C 13.175 45.434 12.742 44.763 12.378 44.055 C 12.31 44.016 12.246 43.973 12.184 43.926 L 11.925 43.797 C 10.482 43.079 9.438 41.75 9.082 40.178 L 9.082 39.79 C 9.142 39.57 9.314 39.398 9.534 39.338 L 9.728 39.338 L 10.374 39.402 C 13.852 39.763 17.349 39.892 20.844 39.79 C 22.036 39.711 23.223 39.56 24.398 39.338 C 24.721 39.338 25.044 39.208 25.303 39.144 L 25.755 39.079 C 26.531 38.885 27.306 38.821 28.082 38.756 C 29.822 38.67 31.556 39.026 33.123 39.79 L 34.803 40.565 C 36.241 41.176 37.769 41.547 39.327 41.664 C 40.014 41.728 40.707 41.728 41.395 41.664 L 41.395 41.6 L 41.524 41.6 L 45.208 41.212 C 44.416 38.794 44.85 36.142 46.371 34.103 L 46.306 33.844 L 46.112 33.521 L 45.983 33.327 Z  M 84.435 26.929 L 84.242 26.154 C 81.197 27.407 78.38 29.154 75.905 31.324 L 73.966 33.392 L 72.415 35.395 L 72.156 35.654 C 71.799 36.152 71.362 36.589 70.864 36.946 L 70.347 37.205 C 69.313 37.722 68.408 38.304 67.503 38.95 L 66.663 39.596 C 66.596 39.658 66.531 39.722 66.469 39.79 L 66.405 39.855 L 66.211 40.178 L 66.082 40.372 C 65.506 41.152 64.688 41.72 63.755 41.987 C 62.981 42.221 62.166 42.287 61.364 42.181 C 61.241 42.905 61.001 43.603 60.653 44.249 C 60.362 44.757 59.991 45.215 59.554 45.606 C 58.569 46.479 57.361 47.06 56.065 47.287 C 54.696 47.527 53.297 47.527 51.929 47.287 C 50.095 46.899 48.439 45.923 47.211 44.508 C 46.715 43.954 46.282 43.347 45.918 42.698 L 45.725 42.44 L 41.847 42.763 L 41.524 42.763 C 40.813 42.892 40.037 42.957 39.327 42.892 C 38.097 42.838 36.88 42.621 35.708 42.246 L 32.605 40.953 L 32.153 40.695 C 31.458 40.429 30.746 40.213 30.02 40.048 C 28.485 39.839 26.923 39.949 25.432 40.372 L 24.786 40.501 L 24.398 40.565 C 22.396 40.944 20.359 41.096 18.323 41.018 C 15.738 41.018 13.153 40.889 10.568 40.63 C 10.31 40.953 12.119 42.634 12.765 42.827 L 12.959 42.892 C 13.089 42.892 13.089 42.892 13.153 43.021 L 13.282 43.086 C 13.692 43.266 14.129 43.375 14.575 43.409 L 15.35 43.344 L 15.803 43.215 L 15.932 43.215 C 16.573 43.093 17.23 43.093 17.871 43.215 L 20.262 43.732 C 24.486 45.105 28.396 47.302 31.765 50.195 L 31.636 51.035 C 31.636 51.035 31.054 51.035 30.796 50.906 L 30.667 50.776 C 29.666 49.862 28.585 49.04 27.435 48.321 C 24.484 46.647 21.336 45.344 18.065 44.443 C 17.487 44.36 16.902 44.339 16.32 44.378 L 16.061 44.378 L 15.803 44.443 L 15.609 44.508 C 15.12 44.608 14.618 44.629 14.123 44.572 L 15.157 45.865 C 16.486 47.465 18.005 48.897 19.68 50.13 C 20.391 50.776 21.167 51.293 21.942 51.875 L 22.071 52.069 L 23.493 54.202 L 23.623 54.395 C 23.642 54.528 23.619 54.664 23.558 54.783 C 23.558 54.848 23.558 54.912 23.429 54.977 L 22.912 55.494 L 24.204 55.753 L 24.333 55.753 L 24.527 55.882 C 24.708 56.044 24.783 56.293 24.721 56.528 C 24.721 56.657 24.657 56.657 24.592 56.722 L 23.946 57.497 L 25.626 58.144 L 25.691 58.208 L 25.82 58.273 L 25.949 58.467 L 25.949 58.531 L 26.208 59.242 L 28.211 59.695 L 28.34 59.695 L 28.534 59.824 C 28.673 59.959 28.744 60.148 28.728 60.341 L 28.663 60.535 L 27.888 62.086 C 27.435 65.082 27.392 68.126 27.759 71.133 L 28.146 74.106 L 28.146 74.494 C 28.143 74.584 28.121 74.672 28.082 74.753 L 28.017 74.882 L 23.816 78.501 L 27.694 77.984 L 27.823 77.984 L 27.952 78.048 C 28.017 78.048 28.082 78.048 28.146 78.178 C 28.285 78.312 28.356 78.502 28.34 78.695 L 28.276 79.018 C 28.19 79.203 28.081 79.377 27.952 79.535 L 27.759 79.793 C 27.57 80.034 27.353 80.251 27.112 80.44 L 26.66 80.892 L 26.983 80.892 L 27.306 80.957 L 28.469 81.215 L 28.599 81.215 L 28.793 81.344 L 28.922 81.538 L 28.986 81.667 C 29.116 81.926 28.986 82.184 28.922 82.378 L 28.793 82.572 L 28.728 82.766 L 28.534 83.089 L 28.276 83.542 L 28.017 84.059 L 27.952 84.188 L 28.146 84.188 L 28.34 84.123 C 29.245 83.929 30.214 83.994 31.119 84.123 L 31.378 84.253 L 31.442 84.317 L 32.347 85.157 L 33.64 86.321 L 33.769 86.579 L 34.286 87.096 C 34.651 87.562 34.875 88.123 34.932 88.712 L 35.449 88.712 C 36.289 88.582 37.129 88.712 37.969 88.906 C 38.912 89.074 39.841 89.312 40.748 89.616 L 41.201 89.94 L 43.075 90.844 C 46.918 92.424 51.093 93.023 55.225 92.589 C 59.709 92.345 64.131 91.43 68.344 89.875 C 70.016 89.296 71.655 88.627 73.255 87.872 C 75.095 87.029 76.926 86.168 78.748 85.287 L 79.847 84.77 C 79.976 84.77 80.041 84.64 80.17 84.576 L 80.364 84.446 C 80.797 84.258 81.254 84.128 81.721 84.059 L 81.85 84.059 L 81.204 83.154 L 81.139 83.025 C 81.098 82.945 81.076 82.856 81.075 82.766 C 81.077 82.596 81.147 82.433 81.269 82.314 L 81.463 82.184 L 82.432 81.797 L 81.333 80.633 L 81.204 80.375 L 81.204 80.181 C 81.207 80.011 81.276 79.848 81.398 79.729 C 81.478 79.656 81.564 79.591 81.656 79.535 C 81.914 79.376 82.199 79.267 82.497 79.212 C 83.595 79.07 84.709 79.114 85.793 79.341 C 84.625 78.7 83.416 78.139 82.173 77.661 L 82.044 77.531 C 81.775 77.342 81.691 76.98 81.85 76.691 L 81.98 76.562 L 82.109 76.497 L 82.238 76.497 L 85.793 75.787 L 82.82 74.559 L 82.69 74.559 L 82.69 74.494 C 82.613 74.444 82.547 74.378 82.497 74.3 C 82.35 73.996 82.462 73.629 82.755 73.46 L 82.82 73.46 L 85.728 72.426 L 85.469 72.297 L 85.276 72.168 C 84.601 71.847 83.988 71.409 83.466 70.875 C 82.327 69.624 81.724 67.977 81.786 66.287 L 81.786 66.157 L 81.85 65.705 C 82.183 63.851 82.292 61.963 82.173 60.082 C 81.98 58.351 81.43 56.679 80.558 55.171 C 80.366 54.874 80.15 54.593 79.912 54.331 L 79.782 54.202 C 79.743 54.121 79.721 54.033 79.718 53.943 L 79.718 53.814 L 80.041 50.647 L 80.105 50.453 C 80.225 50.246 80.448 50.122 80.687 50.13 L 80.881 50.13 L 81.527 50.389 L 81.333 48.385 L 81.333 48.062 C 81.413 47.906 81.553 47.79 81.721 47.739 L 83.143 47.739 L 83.143 47.545 L 83.078 47.351 C 83.004 45.862 83.069 44.369 83.272 42.892 L 83.466 42.052 L 83.66 41.341 C 84.688 37.027 85.015 32.575 84.629 28.157 C 84.496 28.213 84.366 28.278 84.242 28.351 C 83.72 28.734 83.281 29.218 82.949 29.773 C 82.497 30.419 82.173 31.065 81.915 31.712 C 81.527 32.617 81.269 33.457 81.01 34.297 L 80.687 35.589 L 80.493 36.236 L 80.364 36.688 C 79.874 38.104 79.13 39.418 78.167 40.565 C 76.059 43.094 73.089 44.752 69.83 45.219 L 69.184 44.702 L 69.636 44.055 L 69.959 43.991 L 70.347 43.861 C 70.735 43.861 70.993 43.732 71.381 43.603 C 74.132 42.777 76.509 41.017 78.102 38.627 C 78.554 37.98 78.878 37.205 79.136 36.429 L 79.588 34.943 L 79.718 34.297 C 80.107 33.025 80.56 31.774 81.075 30.548 C 81.686 29.275 82.568 28.15 83.66 27.253 C 83.905 27.116 84.165 27.007 84.435 26.929 Z  M 53.803 77.338 L 51.282 75.787 C 50.801 75.458 50.347 75.091 49.925 74.688 L 49.731 74.494 L 49.602 74.365 C 49.327 74.089 49.165 73.72 49.15 73.331 L 49.15 73.137 L 49.214 72.943 L 49.344 72.749 C 49.449 72.616 49.581 72.506 49.731 72.426 C 49.915 72.333 50.111 72.267 50.313 72.232 L 51.476 72.232 C 52.187 72.426 52.898 72.555 53.674 72.62 C 54.691 72.677 55.708 72.5 56.646 72.103 L 57.099 71.844 L 57.293 71.78 C 57.574 71.643 57.884 71.577 58.197 71.586 C 58.487 71.593 58.764 71.708 58.973 71.909 C 59.231 72.232 59.361 72.62 59.296 73.008 C 59.3 73.452 59.212 73.892 59.037 74.3 C 58.948 74.524 58.84 74.741 58.714 74.946 C 58.498 75.323 58.186 75.635 57.81 75.851 L 57.551 75.916 L 57.228 76.045 C 56.474 76.322 55.758 76.691 55.095 77.144 L 55.095 79.729 L 60.653 84.446 L 59.813 85.351 L 55.548 81.603 L 54.449 80.698 L 53.35 81.603 L 49.02 85.351 L 48.245 84.446 L 52.252 80.957 L 53.738 79.664 L 53.803 77.273 L 53.803 77.338 Z  M 48.956 67.385 L 48.891 67.773 C 48.561 68.364 48.036 68.821 47.405 69.065 L 47.082 69.195 L 46.629 69.324 L 46.177 69.453 C 45.605 69.608 45.021 69.716 44.432 69.776 C 43.659 69.86 42.883 69.903 42.105 69.906 L 41.524 69.906 C 40.411 69.946 39.304 69.725 38.293 69.259 C 37.193 68.775 36.203 68.071 35.384 67.191 C 34.616 66.195 34.226 64.958 34.286 63.702 C 34.366 61.577 35.54 59.646 37.388 58.596 C 37.874 58.343 38.398 58.168 38.939 58.079 C 40.778 57.846 42.643 58.232 44.238 59.178 C 45.401 59.953 46.371 60.987 47.146 62.215 C 48.118 63.722 48.757 65.418 49.02 67.191 L 49.02 67.385 L 48.956 67.385 Z  M 39.973 59.242 C 39.65 59.242 39.327 59.242 38.939 59.372 C 38.406 59.488 37.901 59.708 37.452 60.018 C 35.779 61.275 35.102 63.464 35.772 65.446 C 35.946 65.938 36.234 66.381 36.612 66.739 C 37.566 67.705 38.778 68.378 40.102 68.678 L 42.105 68.678 C 43.586 68.629 45.058 68.434 46.5 68.096 L 47.405 67.644 C 47.599 67.514 47.728 67.385 47.728 67.191 C 47.63 66.534 47.479 65.885 47.276 65.253 C 46.629 63.508 45.66 61.763 44.109 60.664 C 43.373 60.107 42.54 59.691 41.653 59.436 C 41.166 59.316 40.668 59.251 40.167 59.242 L 39.973 59.242 Z  M 60.265 66.739 C 60.227 64.919 60.58 63.112 61.299 61.44 C 62.151 59.481 63.66 57.881 65.565 56.916 L 66.663 56.463 C 67.227 56.283 67.816 56.195 68.408 56.205 C 69.332 56.194 70.243 56.416 71.058 56.851 C 73.136 57.996 74.369 60.235 74.225 62.603 C 74.151 63.418 73.861 64.199 73.384 64.865 C 72.233 66.497 70.537 67.666 68.602 68.161 C 68.369 68.222 68.131 68.265 67.891 68.29 L 67.503 68.419 C 66.134 68.621 64.751 68.707 63.367 68.678 L 62.85 68.613 L 62.463 68.548 L 62.139 68.484 C 61.537 68.362 60.991 68.044 60.588 67.579 C 60.478 67.443 60.391 67.29 60.33 67.127 L 60.265 66.868 L 60.265 66.739 Z  M 40.748 61.569 C 39.327 61.827 38.357 63.378 38.68 65.059 C 39.003 66.739 40.425 67.838 41.912 67.644 C 43.333 67.321 44.238 65.77 43.98 64.089 C 43.657 62.409 42.235 61.31 40.748 61.504 L 40.748 61.569 Z  M 68.408 57.368 L 67.891 57.433 C 66.198 57.741 64.666 58.633 63.561 59.953 C 62.572 61.185 61.926 62.657 61.687 64.219 C 61.545 65.009 61.459 65.808 61.429 66.61 L 61.429 66.674 C 61.493 66.868 61.687 66.997 61.816 67.062 L 62.269 67.256 L 62.915 67.385 L 64.983 67.385 C 65.823 67.385 66.728 67.256 67.568 67.127 L 67.891 67.127 C 68.384 67.043 68.862 66.891 69.313 66.674 C 70.689 66.074 71.842 65.057 72.609 63.766 C 72.709 63.601 72.796 63.428 72.867 63.249 C 73.061 62.603 73.061 61.957 72.932 61.246 C 72.694 59.922 71.923 58.754 70.799 58.014 C 70.178 57.622 69.465 57.399 68.731 57.368 L 68.408 57.368 Z  M 67.31 59.953 C 68.796 59.953 70.024 61.246 70.024 62.991 C 70.024 64.671 68.796 66.028 67.31 66.028 C 65.823 66.028 64.66 64.736 64.66 62.991 C 64.66 61.31 65.823 59.889 67.31 59.889 L 67.31 59.953 Z  M 60.201 40.824 C 60.147 39.724 59.764 38.666 59.102 37.787 C 57.453 38.185 55.748 38.294 54.061 38.11 C 51.532 37.737 49.183 36.585 47.34 34.814 L 47.34 34.878 C 47.017 35.331 46.759 35.719 46.565 36.171 C 45.926 37.716 45.88 39.441 46.435 41.018 L 46.694 41.664 L 47.082 42.31 C 47.405 42.763 47.728 43.28 48.18 43.732 C 49.426 45.019 51.062 45.86 52.833 46.123 C 54.318 46.299 55.824 46.122 57.228 45.606 C 57.874 45.348 58.52 44.96 58.973 44.443 C 59.464 43.936 59.82 43.314 60.007 42.634 L 60.136 41.987 L 60.201 41.47 L 60.201 40.824 Z  M 47.922 27.705 C 47.407 28.28 47.031 28.965 46.823 29.708 C 46.61 30.799 46.746 31.93 47.211 32.94 L 47.663 33.457 L 48.568 34.361 C 50.223 35.756 52.24 36.652 54.384 36.946 C 55.806 37.146 57.252 37.08 58.65 36.753 L 58.65 36.559 C 58.818 36.123 58.927 35.666 58.973 35.202 C 59.052 34.065 58.829 32.928 58.327 31.906 L 58.262 31.841 L 57.939 31.583 L 56.582 30.613 C 53.97 28.963 51 27.966 47.922 27.705 Z  M 48.568 21.242 C 48.307 21.508 48.088 21.814 47.922 22.147 C 47.577 22.962 47.465 23.857 47.599 24.732 L 47.599 25.249 C 47.696 25.668 47.825 26.078 47.986 26.477 C 49.189 26.578 50.379 26.795 51.541 27.123 C 53.738 27.77 55.935 28.674 57.81 29.967 C 57.902 28.861 57.815 27.748 57.551 26.671 L 57.486 26.542 L 57.293 26.348 C 56.441 25.137 55.339 24.123 54.061 23.375 C 52.385 22.304 50.521 21.559 48.568 21.178 L 48.568 21.242 Z  M 49.214 15.426 L 49.214 15.555 C 48.943 15.886 48.725 16.257 48.568 16.654 C 48.336 17.453 48.314 18.299 48.503 19.11 C 48.503 19.433 48.633 19.756 48.762 20.014 C 49.639 20.193 50.502 20.431 51.347 20.725 C 53.286 21.372 55.031 22.341 56.517 23.634 C 56.459 22.175 56.265 20.725 55.935 19.304 C 55.848 18.945 55.717 18.598 55.548 18.27 C 55.449 18.095 55.317 17.942 55.16 17.817 L 54.708 17.688 L 54.708 17.494 L 54.578 17.365 C 54.449 17.365 54.384 17.236 54.255 17.171 C 53.118 16.416 51.845 15.889 50.507 15.62 L 49.473 15.491 L 49.214 15.491 L 49.214 15.426 Z  M 48.762 9.933 L 48.697 10.256 C 48.458 11.03 48.413 11.852 48.568 12.647 C 48.645 13.022 48.753 13.389 48.891 13.746 L 49.02 14.134 C 51.045 14.21 53.011 14.836 54.708 15.943 C 54.681 14.974 54.507 14.015 54.191 13.1 C 54.005 12.668 53.742 12.274 53.415 11.936 L 53.35 12.001 L 53.157 11.807 L 53.027 11.678 C 52.488 11.105 51.825 10.663 51.088 10.385 C 50.344 10.095 49.559 9.921 48.762 9.868 L 48.762 9.933 Z  M 53.092 10.127 C 53.069 8.772 52.666 7.451 51.929 6.314 C 51.584 5.863 51.17 5.47 50.701 5.151 C 50.377 4.939 50.03 4.765 49.667 4.634 C 49.46 5.221 49.308 5.827 49.214 6.443 L 49.02 8.77 L 49.731 8.834 L 50.378 8.963 C 51.347 9.222 52.316 9.61 53.092 10.127 Z " fill-rule="evenodd" fill="rgb(55,41,40)"/></g></g></svg>